# xmcd CD database file
#
# Track frame offsets:
#	150
#	19651
#	39050
#	59195
#	81713
#	101391
#	118319
#	140031
#	161047
#	181468
#	205429
#
# Disc length: 3048 seconds
#
# Revision: 0
# Processed by: cddbd v1.5.2PL0 Copyright (c) Steve Scherf et al.
# Submitted via: CDex 1.70beta2
#
DISCID=a40be60b
DTITLE=Varios - Serie 32 - Los Grandes del Merengue Vol. 2
DYEAR=2001
DGENRE=Merengue
TTITLE0=La Dueña del Swing - Hermanos Rosario
TTITLE1=Corazón de Madera - Alex Bueno
TTITLE2=El Jardinero - Wilfrido Vargas
TTITLE3=El Venao - Ramón Orlando
TTITLE4=Guavaberry - Juan Luis Guerra y su 440
TTITLE5=El Higuerón - Chicas del Can, Las
TTITLE6=Ya Viene el Lunes - Hermanos Rosario
TTITLE7=Yo Quiero Una Mujer - Rubby Perez
TTITLE8=Sin Ti No Soy Nada - Alex Bueno
TTITLE9=Tarzan Boy - New York Band, The
TTITLE10=La Medicina - Wilfrido Vargas
EXTD=YEAR: 2001
EXTT0=
EXTT1=
EXTT2=
EXTT3=
EXTT4=
EXTT5=
EXTT6=
EXTT7=
EXTT8=
EXTT9=
EXTT10=
PLAYORDER=
